# xmcd
#
# Track frame offsets: 
#        150
#        13497
#        31117
#        45922
#        65250
#        76412
#        93187
#        111050
#        124932
#        137150
#        155182
#        168910
#        179497
#        201280
#
# Disc length: 2836 seconds
#
# Revision: 3
# Processed by: cddbd v1.5.2PL0 Copyright (c) Steve Scherf et al.
# Submitted via: ExactAudioCopy v0.99pb3
#
DISCID=b90b120e
DTITLE=Tony Bennett - Astoria: Portrait of the Artist
DYEAR=1990
DGENRE=Easy Listening
TTITLE0=When Do The Bells Ring For Me
TTITLE1=I Was Lost, I Was Drifting
TTITLE2=A Little Street Where Old Friends Meet
TTITLE3=The Girl I Love
TTITLE4=It's Like Reaching For The Moon
TTITLE5=Speak Low
TTITLE6=The Folks That Live On The Hill
TTITLE7=Antonia
TTITLE8=A Weaver Of Dreams/There Will Never Be Another You
TTITLE9=Body And Soul
TTITLE10=Where Do You Go From Love
TTITLE11=The Boulevard Of Broken Dreams
TTITLE12=Where Did The Magic Go
TTITLE13=I've Come Home Again
EXTD=YEAR: 1990
EXTT0=
EXTT1=
EXTT2=
EXTT3=
EXTT4=
EXTT5=
EXTT6=
EXTT7=
EXTT8=
EXTT9=
EXTT10=
EXTT11=
EXTT12=
EXTT13=
PLAYORDER=
